<svg width="19" height="19" viewBox="0 0 19 19" fill="none" xmlns="http://www.w3.org/2000/svg">
<path id="Vector" d="M12 7.24219H7.00781C6.78906 7.24219 6.60938 7.31641 6.46875 7.46484C6.32812 7.61328 6.25781 7.78906 6.25781 7.99219C6.25781 8.21094 6.32812 8.39062 6.46875 8.53125C6.60938 8.67188 6.78906 8.74219 7.00781 8.74219H12C12.2031 8.74219 12.3789 8.67188 12.5273 8.53125C12.6758 8.39062 12.75 8.21094 12.75 7.99219C12.75 7.78906 12.6758 7.61328 12.5273 7.46484C12.3789 7.31641 12.2031 7.24219 12 7.24219ZM12 10.2422H7.00781C6.78906 10.2422 6.60938 10.3164 6.46875 10.4648C6.32812 10.6133 6.25781 10.7891 6.25781 10.9922C6.25781 11.2109 6.32812 11.3906 6.46875 11.5312C6.60938 11.6719 6.78906 11.7422 7.00781 11.7422H12C12.2031 11.7422 12.3789 11.6719 12.5273 11.5312C12.6758 11.3906 12.75 11.2109 12.75 10.9922C12.75 10.7891 12.6758 10.6133 12.5273 10.4648C12.3789 10.3164 12.2031 10.2422 12 10.2422ZM4.6875 7.71094C4.67188 7.66406 4.64844 7.62109 4.61719 7.58203C4.58594 7.54297 4.55469 7.50781 4.52344 7.47656C4.46094 7.41406 4.38281 7.36328 4.28906 7.32422C4.19531 7.28516 4.10156 7.26562 4.00781 7.26562C3.89844 7.26562 3.79688 7.28516 3.70312 7.32422C3.60938 7.36328 3.53125 7.41406 3.46875 7.47656C3.40625 7.53906 3.35547 7.61719 3.31641 7.71094C3.27734 7.80469 3.25781 7.89844 3.25781 7.99219C3.25781 8.21094 3.32812 8.39062 3.46875 8.53125C3.60938 8.67188 3.78906 8.74219 4.00781 8.74219C4.21094 8.74219 4.38672 8.67188 4.53516 8.53125C4.68359 8.39062 4.75781 8.21094 4.75781 7.99219C4.75781 7.94531 4.75 7.89844 4.73438 7.85156C4.71875 7.80469 4.70312 7.75781 4.6875 7.71094ZM3.70312 10.3125C3.60938 10.3438 3.53125 10.3945 3.46875 10.4648C3.40625 10.5352 3.35156 10.6172 3.30469 10.7109C3.28906 10.7578 3.27734 10.8047 3.26953 10.8516C3.26172 10.8984 3.25781 10.9453 3.25781 10.9922C3.25781 11.0547 3.26172 11.1094 3.26953 11.1562C3.27734 11.2031 3.28906 11.25 3.30469 11.2969C3.33594 11.3438 3.36328 11.3867 3.38672 11.4258C3.41016 11.4648 3.4375 11.5 3.46875 11.5312C3.5 11.5625 3.53516 11.5898 3.57422 11.6133C3.61328 11.6367 3.65625 11.6641 3.70312 11.6953C3.75 11.7109 3.79688 11.7227 3.84375 11.7305C3.89062 11.7383 3.94531 11.7422 4.00781 11.7422C4.10156 11.7422 4.19531 11.7227 4.28906 11.6836C4.38281 11.6445 4.46094 11.5938 4.52344 11.5312C4.55469 11.5 4.58594 11.4648 4.61719 11.4258C4.64844 11.3867 4.67188 11.3438 4.6875 11.2969C4.70312 11.25 4.71875 11.2031 4.73438 11.1562C4.75 11.1094 4.75781 11.0547 4.75781 10.9922C4.75781 10.9453 4.75 10.8984 4.73438 10.8516C4.71875 10.8047 4.70312 10.7578 4.6875 10.7109C4.67188 10.6641 4.64844 10.6211 4.61719 10.582C4.58594 10.543 4.55469 10.5078 4.52344 10.4766C4.46094 10.3984 4.38281 10.3438 4.28906 10.3125C4.19531 10.2812 4.09375 10.2656 3.98438 10.2656C3.9375 10.2656 3.89062 10.2695 3.84375 10.2773C3.79688 10.2852 3.75 10.2969 3.70312 10.3125ZM18 13.9922H16.0078V12C16.0078 11.7188 15.9102 11.4805 15.7148 11.2852C15.5195 11.0898 15.2812 10.9922 15 10.9922C14.7188 10.9922 14.4805 11.0898 14.2852 11.2852C14.0898 11.4805 13.9922 11.7188 13.9922 12V13.9922H12C11.7188 13.9922 11.4805 14.0898 11.2852 14.2852C11.0898 14.4805 10.9922 14.7188 10.9922 15C10.9922 15.2812 11.0898 15.5195 11.2852 15.7148C11.4805 15.9102 11.7188 16.0078 12 16.0078H13.9922V18C13.9922 18.2812 14.0898 18.5195 14.2852 18.7148C14.4805 18.9102 14.7188 19.0078 15 19.0078C15.2812 19.0078 15.5195 18.9102 15.7148 18.7148C15.9102 18.5195 16.0078 18.2812 16.0078 18V16.0078H18C18.2812 16.0078 18.5195 15.9102 18.7148 15.7148C18.9102 15.5195 19.0078 15.2812 19.0078 15C19.0078 14.7188 18.9102 14.4805 18.7148 14.2852C18.5195 14.0898 18.2812 13.9922 18 13.9922ZM7.99219 13.9922H2.50781C2.36719 13.9922 2.24609 13.9453 2.14453 13.8516C2.04297 13.7578 1.99219 13.6406 1.99219 13.5V5.25H13.9922V7.99219C13.9922 8.27344 14.0898 8.51172 14.2852 8.70703C14.4805 8.90234 14.7188 9 15 9C15.2812 9 15.5195 8.90234 15.7148 8.70703C15.9102 8.51172 16.0078 8.27344 16.0078 7.99219V2.50781C16.0078 1.82031 15.7617 1.23047 15.2695 0.738281C14.7773 0.246094 14.1875 0 13.5 0H2.50781C1.82031 0 1.23047 0.246094 0.738281 0.738281C0.246094 1.23047 0 1.82031 0 2.50781V13.5C0 14.1875 0.246094 14.7773 0.738281 15.2695C1.23047 15.7617 1.82031 16.0078 2.50781 16.0078H7.99219C8.27344 16.0078 8.51172 15.9102 8.70703 15.7148C8.90234 15.5195 9 15.2812 9 15C9 14.7188 8.90234 14.4805 8.70703 14.2852C8.51172 14.0898 8.27344 13.9922 7.99219 13.9922ZM2.50781 1.99219H13.5C13.6406 1.99219 13.7578 2.04297 13.8516 2.14453C13.9453 2.24609 13.9922 2.36719 13.9922 2.50781V3.75H1.99219V2.50781C1.99219 2.36719 2.04297 2.24609 2.14453 2.14453C2.24609 2.04297 2.36719 1.99219 2.50781 1.99219Z" fill="#8094AE"/>
</svg>
