<svg width="22" height="17" viewBox="0 0 22 17" fill="none" xmlns="http://www.w3.org/2000/svg">
<path id="Vector" d="M21 9.5H0.984375C0.71875 9.5 0.488281 9.40234 0.292969 9.20703C0.0976563 9.01172 0 8.77344 0 8.49219C0 8.22656 0.0976563 7.99609 0.292969 7.80078C0.488281 7.60547 0.71875 7.50781 0.984375 7.50781H21C21.2656 7.50781 21.4961 7.60547 21.6914 7.80078C21.8867 7.99609 21.9844 8.22656 21.9844 8.49219C21.9844 8.77344 21.8867 9.01172 21.6914 9.20703C21.4961 9.40234 21.2656 9.5 21 9.5ZM21.9844 1.50781C21.9844 1.22656 21.8867 0.988281 21.6914 0.792969C21.4961 0.597656 21.2656 0.5 21 0.5H0.984375C0.71875 0.5 0.488281 0.597656 0.292969 0.792969C0.0976563 0.988281 0 1.22656 0 1.50781C0 1.77344 0.0976563 2.00391 0.292969 2.19922C0.488281 2.39453 0.71875 2.49219 0.984375 2.49219H21C21.2656 2.49219 21.4961 2.39453 21.6914 2.19922C21.8867 2.00391 21.9844 1.77344 21.9844 1.50781ZM21.9844 15.5C21.9844 15.2188 21.8867 14.9805 21.6914 14.7852C21.4961 14.5898 21.2656 14.4922 21 14.4922H0.984375C0.71875 14.4922 0.488281 14.5898 0.292969 14.7852C0.0976563 14.9805 0 15.2188 0 15.5C0 15.7812 0.0976563 16.0195 0.292969 16.2148C0.488281 16.4102 0.71875 16.5078 0.984375 16.5078H21C21.2656 16.5078 21.4961 16.4102 21.6914 16.2148C21.8867 16.0195 21.9844 15.7812 21.9844 15.5Z" fill="white"/>
</svg>
