<svg width="21" height="20" viewBox="0 0 21 20" fill="none" xmlns="http://www.w3.org/2000/svg">
<path id="Vector" d="M4.64062 6.35938C4.375 6.09375 4.16406 5.77734 4.00781 5.41016C3.85156 5.04297 3.77344 4.64844 3.77344 4.22656C3.77344 4.17969 3.77344 4.13281 3.77344 4.08594C3.77344 4.03906 3.77344 4 3.77344 3.96875C3.88281 2.875 4.33594 1.94922 5.13281 1.19141C5.92969 0.433594 6.88281 0.0390625 7.99219 0.0078125H8.01562C9.10938 0.0390625 10.0586 0.425781 10.8633 1.16797C11.668 1.91016 12.125 2.82031 12.2344 3.89844V3.92188C12.2344 3.96875 12.2383 4.01562 12.2461 4.0625C12.2539 4.10938 12.2578 4.16406 12.2578 4.22656C12.2578 4.64844 12.1797 5.03906 12.0234 5.39844C11.8672 5.75781 11.6484 6.07812 11.3672 6.35938C10.9766 6.71875 10.5273 7.00391 10.0195 7.21484C9.51172 7.42578 8.96875 7.53125 8.39062 7.53125C8.35938 7.53125 8.33203 7.53125 8.30859 7.53125C8.28516 7.53125 8.25781 7.53125 8.22656 7.53125H8.25C8.20312 7.53125 8.16016 7.53125 8.12109 7.53125C8.08203 7.53125 8.04688 7.53125 8.01562 7.53125C7.96875 7.53125 7.91406 7.53125 7.85156 7.53125C7.78906 7.53125 7.73438 7.53125 7.6875 7.53125C7.09375 7.53125 6.53516 7.42578 6.01172 7.21484C5.48828 7.00391 5.03125 6.71875 4.64062 6.35938ZM17.4844 9.125C17.4062 9.07812 17.3281 9.04688 17.25 9.03125C17.1719 9.01562 17.0938 9.00781 17.0156 9.00781C16.7344 9.00781 16.4961 9.10547 16.3008 9.30078C16.1055 9.49609 16.0078 9.72656 16.0078 9.99219C16.0078 10.1953 16.0547 10.375 16.1484 10.5312C16.2422 10.6875 16.375 10.8047 16.5469 10.8828C16.9062 11.0703 17.2383 11.5664 17.543 12.3711C17.8477 13.1758 18 14.1406 18 15.2656V17C18 17.2812 18.0977 17.5195 18.293 17.7148C18.4883 17.9102 18.7266 18.0078 19.0078 18.0078C19.2891 18.0078 19.5273 17.9102 19.7227 17.7148C19.918 17.5195 20.0156 17.2812 20.0156 17V15.2656C20.0156 13.8125 19.7852 12.5273 19.3242 11.4102C18.8633 10.293 18.25 9.53125 17.4844 9.125ZM14.1797 6.40625C14.1016 6.4375 14.0273 6.47656 13.957 6.52344C13.8867 6.57031 13.8125 6.60938 13.7344 6.64062C13.5938 6.73438 13.4805 6.85547 13.3945 7.00391C13.3086 7.15234 13.2656 7.32031 13.2656 7.50781C13.2656 7.78906 13.3633 8.02734 13.5586 8.22266C13.7539 8.41797 13.9922 8.51562 14.2734 8.51562C14.3672 8.51562 14.457 8.5 14.543 8.46875C14.6289 8.4375 14.7109 8.39844 14.7891 8.35156C14.8516 8.32031 14.9141 8.28516 14.9766 8.24609C15.0391 8.20703 15.1016 8.16406 15.1641 8.11719C15.6484 7.91406 16.0742 7.63281 16.4414 7.27344C16.8086 6.91406 17.1016 6.5 17.3203 6.03125V6.00781C17.3203 5.99219 17.3242 5.97656 17.332 5.96094C17.3398 5.94531 17.3438 5.92969 17.3438 5.91406V5.89062C17.3594 5.79688 17.375 5.69531 17.3906 5.58594C17.4062 5.47656 17.4141 5.36719 17.4141 5.25781C17.4141 4.36719 17.1406 3.57812 16.5938 2.89062C16.0469 2.20312 15.3594 1.75 14.5312 1.53125H14.5078C14.4766 1.53125 14.4375 1.52734 14.3906 1.51953C14.3438 1.51172 14.2969 1.50781 14.25 1.50781C13.9844 1.50781 13.7539 1.60547 13.5586 1.80078C13.3633 1.99609 13.2656 2.23438 13.2656 2.51562C13.2656 2.73438 13.3359 2.93359 13.4766 3.11328C13.6172 3.29297 13.7969 3.41406 14.0156 3.47656C14.4219 3.58594 14.7578 3.80859 15.0234 4.14453C15.2891 4.48047 15.4219 4.85938 15.4219 5.28125C15.4219 5.29688 15.4219 5.31641 15.4219 5.33984C15.4219 5.36328 15.4219 5.38281 15.4219 5.39844V5.375C15.2656 5.60938 15.082 5.8125 14.8711 5.98438C14.6602 6.15625 14.4297 6.28906 14.1797 6.38281V6.40625ZM11.5078 9.99219H4.5C3.875 9.99219 3.28906 10.1562 2.74219 10.4844C2.19531 10.8125 1.71875 11.2617 1.3125 11.832C0.90625 12.4023 0.585938 13.0703 0.351562 13.8359C0.117188 14.6172 0 15.4531 0 16.3438V17.4922C0 17.5547 0.0078125 17.6094 0.0234375 17.6562C0.0390625 17.7031 0.0546875 17.75 0.0703125 17.7969C0.101562 17.8906 0.148438 17.9805 0.210938 18.0664C0.273438 18.1523 0.34375 18.2266 0.421875 18.2891C0.6875 18.5391 1.0625 18.7656 1.54688 18.9688C2.04688 19.1875 2.625 19.3711 3.28125 19.5195C3.9375 19.668 4.67188 19.7891 5.48438 19.8828C6.28125 19.9609 7.125 20 8.01562 20C8.89062 20 9.73438 19.9609 10.5469 19.8828C11.3438 19.7891 12.0742 19.668 12.7383 19.5195C13.4023 19.3711 13.9766 19.1875 14.4609 18.9688C14.9609 18.7656 15.3438 18.5391 15.6094 18.2891C15.6875 18.2266 15.7539 18.1523 15.8086 18.0664C15.8633 17.9805 15.9062 17.8906 15.9375 17.7969C15.9688 17.75 15.9883 17.7031 15.9961 17.6562C16.0039 17.6094 16.0078 17.5547 16.0078 17.4922V16.3438C16.0078 15.4531 15.8906 14.6172 15.6562 13.8359C15.4219 13.0703 15.1016 12.4023 14.6953 11.832C14.2891 11.2617 13.8125 10.8125 13.2656 10.4844C12.7188 10.1562 12.1328 9.99219 11.5078 9.99219Z" fill="#8094AE"/>
</svg>
