<svg width="10" height="11" viewBox="0 0 10 11" fill="none" xmlns="http://www.w3.org/2000/svg">
<path id="Vector" d="M0.618896 10.75C0.603271 10.75 0.587646 10.75 0.572021 10.75C0.556396 10.75 0.540771 10.7461 0.525146 10.7383C0.407959 10.7227 0.310303 10.668 0.232178 10.5742C0.154053 10.4805 0.11499 10.3711 0.11499 10.2461C0.11499 10.2305 0.11499 10.2148 0.11499 10.1992C0.11499 10.1836 0.118896 10.168 0.126709 10.1523V10.1641C0.150146 10.0078 0.185303 9.85156 0.232178 9.69531C0.372803 9.21094 0.587646 8.76562 0.876709 8.35938C1.15796 7.95312 1.49194 7.60352 1.87866 7.31055C2.26538 7.01758 2.69702 6.78906 3.17358 6.625C3.64233 6.45312 4.13843 6.36719 4.66187 6.36719C5.1853 6.36719 5.6814 6.44922 6.15015 6.61328C6.62671 6.77734 7.05835 7.00586 7.44507 7.29883C7.83179 7.5918 8.16577 7.94141 8.44702 8.34766C8.72827 8.74609 8.93921 9.18359 9.07983 9.66016L9.09155 9.69531C9.10718 9.75 9.12476 9.81641 9.14429 9.89453C9.16382 9.97266 9.1814 10.0508 9.19702 10.1289V10.1523C9.20483 10.168 9.20874 10.1836 9.20874 10.1992C9.20874 10.2148 9.20874 10.2305 9.20874 10.2461C9.20874 10.3867 9.15991 10.5059 9.06226 10.6035C8.9646 10.7012 8.84546 10.75 8.70483 10.75C8.58765 10.75 8.48218 10.7109 8.38843 10.6328C8.29468 10.5547 8.23608 10.457 8.21265 10.3398C8.20483 10.2617 8.19312 10.1914 8.17749 10.1289C8.16187 10.0664 8.14233 10.0078 8.1189 9.95312L8.13062 9.97656C8.01343 9.59375 7.84546 9.24219 7.62671 8.92188C7.40796 8.60938 7.14624 8.33789 6.84155 8.10742C6.53687 7.87695 6.20093 7.69531 5.83374 7.5625C5.45874 7.4375 5.06812 7.375 4.66187 7.375C4.25562 7.375 3.86499 7.4375 3.48999 7.5625C3.1228 7.69531 2.78687 7.875 2.48218 8.10156C2.17749 8.32812 1.91577 8.60156 1.69702 8.92188C1.47827 9.23438 1.31421 9.57812 1.20483 9.95312L1.19312 9.97656C1.17749 10.0234 1.16382 10.0762 1.1521 10.1348C1.14038 10.1934 1.12671 10.2539 1.11108 10.3164V10.3398C1.08765 10.457 1.02905 10.5547 0.935303 10.6328C0.841553 10.7109 0.736084 10.75 0.618896 10.75ZM7.06421 3.15625C7.06421 2.82031 7.00171 2.50781 6.87671 2.21875C6.75171 1.92969 6.57983 1.67578 6.36108 1.45703C6.14233 1.23828 5.88843 1.06641 5.59937 0.941406C5.30249 0.816406 4.98999 0.753906 4.66187 0.753906C4.33374 0.753906 4.02124 0.816406 3.72437 0.941406C3.4353 1.06641 3.1814 1.23828 2.96265 1.45703C2.7439 1.67578 2.57202 1.92969 2.44702 2.21875C2.32202 2.50781 2.25952 2.82031 2.25952 3.15625C2.25952 3.48438 2.32202 3.79688 2.44702 4.09375C2.57202 4.38281 2.7439 4.63672 2.96265 4.85547C3.1814 5.07422 3.4353 5.24609 3.72437 5.37109C4.02124 5.49609 4.33374 5.55859 4.66187 5.55859C4.98999 5.55859 5.30249 5.49609 5.59937 5.37109C5.88843 5.24609 6.14233 5.07422 6.36108 4.85547C6.57983 4.63672 6.75171 4.38281 6.87671 4.09375C7.00171 3.79688 7.06421 3.48438 7.06421 3.15625ZM6.06812 3.15625C6.06812 3.53906 5.9314 3.86914 5.65796 4.14648C5.38452 4.42383 5.05249 4.5625 4.66187 4.5625C4.27124 4.5625 3.93921 4.42383 3.66577 4.14648C3.39233 3.86914 3.25562 3.53906 3.25562 3.15625C3.25562 2.76562 3.39233 2.43359 3.66577 2.16016C3.93921 1.88672 4.27124 1.75 4.66187 1.75C5.05249 1.75 5.38452 1.88672 5.65796 2.16016C5.9314 2.43359 6.06812 2.76562 6.06812 3.15625Z" fill="white"/>
</svg>
