<svg width="16" height="20" viewBox="0 0 16 20" fill="none" xmlns="http://www.w3.org/2000/svg">
<path id="Vector" d="M15.9844 17.4922C15.9844 17.5547 15.9805 17.6094 15.9727 17.6562C15.9648 17.7031 15.9531 17.75 15.9375 17.7969C15.9062 17.8906 15.8594 17.9805 15.7969 18.0664C15.7344 18.1523 15.6641 18.2266 15.5859 18.2891C15.3203 18.5391 14.9375 18.7656 14.4375 18.9688C13.9531 19.1875 13.3789 19.3711 12.7148 19.5195C12.0508 19.668 11.3203 19.7891 10.5234 19.8828C9.72656 19.9609 8.88281 20 7.99219 20C7.10156 20 6.25781 19.9609 5.46094 19.8828C4.66406 19.7891 3.93359 19.668 3.26953 19.5195C2.60547 19.3711 2.03125 19.1875 1.54688 18.9688C1.04688 18.7656 0.664062 18.5391 0.398438 18.2891C0.320312 18.2266 0.25 18.1523 0.1875 18.0664C0.125 17.9805 0.078125 17.8906 0.046875 17.7969C0.03125 17.75 0.0195312 17.7031 0.0117188 17.6562C0.00390625 17.6094 0 17.5547 0 17.4922V16.3438C0 15.4531 0.117188 14.6172 0.351562 13.8359C0.570312 13.0703 0.882812 12.4023 1.28906 11.832C1.69531 11.2617 2.17188 10.8125 2.71875 10.4844C3.26562 10.1562 3.85938 9.99219 4.5 9.99219H11.4844C12.125 9.99219 12.7188 10.1562 13.2656 10.4844C13.8125 10.8125 14.2891 11.2617 14.6953 11.832C15.1016 12.4023 15.4141 13.0703 15.6328 13.8359C15.8672 14.6172 15.9844 15.4531 15.9844 16.3438V17.4922ZM7.75781 7.53125C7.80469 7.53125 7.84766 7.53125 7.88672 7.53125C7.92578 7.53125 7.96094 7.53125 7.99219 7.53125C8.03906 7.53125 8.08984 7.53125 8.14453 7.53125C8.19922 7.53125 8.25781 7.53125 8.32031 7.53125C8.91406 7.53125 9.46875 7.42578 9.98438 7.21484C10.5 7.00391 10.9609 6.71875 11.3672 6.35938C11.6328 6.07812 11.8438 5.75781 12 5.39844C12.1562 5.03906 12.2344 4.64844 12.2344 4.22656C12.2344 4.16406 12.2344 4.10547 12.2344 4.05078C12.2344 3.99609 12.2266 3.94531 12.2109 3.89844V3.92188C12.1016 2.82812 11.6484 1.91016 10.8516 1.16797C10.0547 0.425781 9.10156 0.0390625 7.99219 0.0078125C6.88281 0.0390625 5.92578 0.433594 5.12109 1.19141C4.31641 1.94922 3.86719 2.86719 3.77344 3.94531V3.96875C3.75781 4.01562 3.75 4.05859 3.75 4.09766C3.75 4.13672 3.75 4.17969 3.75 4.22656C3.75 4.64844 3.82812 5.04297 3.98438 5.41016C4.14062 5.77734 4.35156 6.09375 4.61719 6.35938C5.00781 6.71875 5.46094 7.00391 5.97656 7.21484C6.49219 7.42578 7.03906 7.53125 7.61719 7.53125C7.64844 7.53125 7.67578 7.53125 7.69922 7.53125C7.72266 7.53125 7.75 7.53125 7.78125 7.53125H7.75781Z" fill="#8094AE"/>
</svg>
