<svg width="21" height="20" viewBox="0 0 21 20" fill="none" xmlns="http://www.w3.org/2000/svg">
<path id="Vector" d="M20.0156 2V9.00781C20.0156 9.55469 19.8203 10.0234 19.4297 10.4141C19.0391 10.8047 18.5625 11 18 11H13.0078C12.4609 11 11.9922 10.8047 11.6016 10.4141C11.2109 10.0234 11.0156 9.55469 11.0156 9.00781V2C11.0156 1.45312 11.2109 0.984375 11.6016 0.59375C11.9922 0.203125 12.4609 0.0078125 13.0078 0.0078125H18C18.5625 0.0078125 19.0391 0.203125 19.4297 0.59375C19.8203 0.984375 20.0156 1.45312 20.0156 2ZM7.00781 0.0078125H2.01562C1.45312 0.0078125 0.976562 0.203125 0.585938 0.59375C0.195313 0.984375 0 1.45312 0 2V6.00781C0 6.55469 0.195313 7.02344 0.585938 7.41406C0.976562 7.80469 1.45312 8 2.01562 8H7.00781C7.55469 8 8.02344 7.80469 8.41406 7.41406C8.80469 7.02344 9 6.55469 9 6.00781V2C9 1.45312 8.80469 0.984375 8.41406 0.59375C8.02344 0.203125 7.55469 0.0078125 7.00781 0.0078125ZM18 12.9922H13.0078C12.4609 12.9922 11.9922 13.1875 11.6016 13.5781C11.2109 13.9688 11.0156 14.4453 11.0156 15.0078V18.0078C11.0156 18.5547 11.2109 19.0234 11.6016 19.4141C11.9922 19.8047 12.4609 20 13.0078 20H18C18.5625 20 19.0391 19.8047 19.4297 19.4141C19.8203 19.0234 20.0156 18.5547 20.0156 18.0078V15.0078C20.0156 14.4453 19.8203 13.9688 19.4297 13.5781C19.0391 13.1875 18.5625 12.9922 18 12.9922ZM7.00781 9.99219H2.01562C1.45312 9.99219 0.976562 10.1875 0.585938 10.5781C0.195313 10.9688 0 11.4453 0 12.0078V18.0078C0 18.5547 0.195313 19.0234 0.585938 19.4141C0.976562 19.8047 1.45312 20 2.01562 20H7.00781C7.55469 20 8.02344 19.8047 8.41406 19.4141C8.80469 19.0234 9 18.5547 9 18.0078V12.0078C9 11.4453 8.80469 10.9688 8.41406 10.5781C8.02344 10.1875 7.55469 9.99219 7.00781 9.99219Z" fill="#526484"/>
</svg>
