<svg width="21" height="20" viewBox="0 0 21 20" fill="none" xmlns="http://www.w3.org/2000/svg">
<path id="Vector" d="M17.0156 0.0078125H3C2.17188 0.0078125 1.46484 0.300781 0.878906 0.886719C0.292969 1.47266 0 2.17969 0 3.00781V18.9922C0 19.2734 0.0976563 19.5117 0.292969 19.707C0.488281 19.9023 0.726562 20 1.00781 20C1.14844 20 1.27734 19.9727 1.39453 19.918C1.51172 19.8633 1.61719 19.7891 1.71094 19.6953L5.41406 15.9922H17.0156C17.8438 15.9922 18.5508 15.6992 19.1367 15.1133C19.7227 14.5273 20.0156 13.8203 20.0156 12.9922V3.00781C20.0156 2.17969 19.7227 1.47266 19.1367 0.886719C18.5508 0.300781 17.8438 0.0078125 17.0156 0.0078125ZM5.01562 9.5C4.59375 9.5 4.23828 9.35547 3.94922 9.06641C3.66016 8.77734 3.51562 8.42188 3.51562 8C3.51562 7.57812 3.66016 7.22266 3.94922 6.93359C4.23828 6.64453 4.59375 6.5 5.01562 6.5C5.42188 6.5 5.77344 6.64453 6.07031 6.93359C6.36719 7.22266 6.51562 7.57812 6.51562 8C6.51562 8.40625 6.36719 8.75781 6.07031 9.05469C5.77344 9.35156 5.42188 9.5 5.01562 9.5ZM10.0078 9.5C9.58594 9.5 9.23047 9.35547 8.94141 9.06641C8.65234 8.77734 8.50781 8.42188 8.50781 8C8.50781 7.57812 8.65234 7.22266 8.94141 6.93359C9.23047 6.64453 9.58594 6.5 10.0078 6.5C10.4297 6.5 10.7852 6.64453 11.0742 6.93359C11.3633 7.22266 11.5078 7.57812 11.5078 8C11.5078 8.40625 11.3594 8.75781 11.0625 9.05469C10.7656 9.35156 10.4141 9.5 10.0078 9.5ZM15 9.5C14.5938 9.5 14.2422 9.35547 13.9453 9.06641C13.6484 8.77734 13.5 8.42188 13.5 8C13.5 7.57812 13.6484 7.22266 13.9453 6.93359C14.2422 6.64453 14.5938 6.5 15 6.5C15.4219 6.5 15.7773 6.64453 16.0664 6.93359C16.3555 7.22266 16.5 7.57812 16.5 8C16.5 8.40625 16.3555 8.75781 16.0664 9.05469C15.7773 9.35156 15.4219 9.5 15 9.5Z" fill="#8094AE"/>
</svg>
