<svg width="16" height="20" viewBox="0 0 16 20" fill="none" xmlns="http://www.w3.org/2000/svg">
<path id="Vector" d="M13.9922 0.0078125H3.98438C2.89062 0.0078125 1.95312 0.398438 1.17188 1.17969C0.390625 1.96094 0 2.89844 0 3.99219V15.9922C0 17.1016 0.390625 18.0469 1.17188 18.8281C1.95312 19.6094 2.89062 20 3.98438 20H13.9922C14.5391 20 15.0078 19.8047 15.3984 19.4141C15.7891 19.0234 15.9844 18.5547 15.9844 18.0078V2C15.9844 1.45312 15.7891 0.984375 15.3984 0.59375C15.0078 0.203125 14.5391 0.0078125 13.9922 0.0078125ZM3.98438 18.0078C3.4375 18.0078 2.96875 17.8125 2.57812 17.4219C2.1875 17.0312 1.99219 16.5547 1.99219 15.9922C2.02344 15.7109 2.14453 15.4766 2.35547 15.2891C2.56641 15.1016 2.8125 15.0078 3.09375 15.0078C3.10938 15.0078 3.125 15.0078 3.14062 15.0078C3.15625 15.0078 3.17188 15.0078 3.1875 15.0078H13.9922V18.0078H3.98438Z" fill="#8094AE"/>
</svg>
